# xmcd
#
# Track frame offsets:
#	150
#	21389
#	35635
#	53778
#	70832
#	85294
#	100713
#	120026
#	135067
#	149118
#	167696
#	186973
#
# Disc length: 2756 seconds
#
# Revision: 1
# Processed by: cddbd v1.5.2PL0 Copyright (c) Steve Scherf et al.
# Submitted via: audiograbber 1.83.01
#
DISCID=9e0ac20c
DTITLE=Chartbuster - CB 60459
DYEAR=2011
DGENRE=karaoke
TTITLE0=Zac Brown Band - Colder Weather
TTITLE1=Miranda Lambert - Heart Like Mine
TTITLE2=I Won't Let Go - Rascal Flatts
TTITLE3=The Band Perry - You Lie
TTITLE4=Ashton Shepherd - Look It Up
TTITLE5=Trace Adkins - Brown Chicken Brown Cow
TTITLE6=1,000 Faces - Randy Montana
TTITLE7=Blake Wise - I've Got This Feeling
TTITLE8=Alabama - Are You Sure Hank Done It This Way
TTITLE9=Keith Urban - Without You
TTITLE10=Taylor Swift - Mean
TTITLE11=Margaret Durante - Mississippi Cryin'
EXTD=
EXTT0=
EXTT1=
EXTT2=
EXTT3=
EXTT4=
EXTT5=
EXTT6=
EXTT7=
EXTT8=
EXTT9=
EXTT10=
EXTT11=
PLAYORDER=
